<?xml version="1.0" encoding="UTF-8" standalone="no"?>
<svg
   width="231"
   height="48"
   viewBox="0 0 231 48"
   fill="none"
   version="1.1"
   id="svg19"
   sodipodi:docname="auth-logo.svg"
   inkscape:version="1.4.2 (2aeb623e1d, 2025-05-12)"
   xmlns:inkscape="http://www.inkscape.org/namespaces/inkscape"
   xmlns:sodipodi="http://sodipodi.sourceforge.net/DTD/sodipodi-0.dtd"
   xmlns="http://www.w3.org/2000/svg"
   xmlns:svg="http://www.w3.org/2000/svg">
  <sodipodi:namedview
     id="namedview19"
     pagecolor="#ffffff"
     bordercolor="#000000"
     borderopacity="0.25"
     inkscape:showpageshadow="2"
     inkscape:pageopacity="0.0"
     inkscape:pagecheckerboard="0"
     inkscape:deskcolor="#d1d1d1"
     inkscape:zoom="5.4150299"
     inkscape:cx="151.15337"
     inkscape:cy="28.531698"
     inkscape:window-width="2560"
     inkscape:window-height="1371"
     inkscape:window-x="0"
     inkscape:window-y="0"
     inkscape:window-maximized="1"
     inkscape:current-layer="svg19" />
  <defs
     id="defs19">
    <filter
       id="filter0_d_3903_56743"
       x="12.0615"
       y="9.60596"
       width="7.05273"
       height="29.7896"
       filterUnits="userSpaceOnUse"
       color-interpolation-filters="sRGB">
      <feFlood
         flood-opacity="0"
         result="BackgroundImageFix"
         id="feFlood13" />
      <feColorMatrix
         in="SourceAlpha"
         type="matrix"
         values="0 0 0 0 0 0 0 0 0 0 0 0 0 0 0 0 0 0 127 0"
         result="hardAlpha"
         id="feColorMatrix13" />
      <feOffset
         dy="0.5"
         id="feOffset13" />
      <feGaussianBlur
         stdDeviation="0.5"
         id="feGaussianBlur13" />
      <feComposite
         in2="hardAlpha"
         operator="out"
         id="feComposite13" />
      <feColorMatrix
         type="matrix"
         values="0 0 0 0 0 0 0 0 0 0 0 0 0 0 0 0 0 0 0.12 0"
         id="feColorMatrix14" />
      <feBlend
         mode="normal"
         in2="BackgroundImageFix"
         result="effect1_dropShadow_3903_56743"
         id="feBlend14" />
      <feBlend
         mode="normal"
         in="SourceGraphic"
         in2="effect1_dropShadow_3903_56743"
         result="shape"
         id="feBlend15" />
    </filter>
    <filter
       id="filter1_d_3903_56743"
       x="21.5391"
       y="19.709"
       width="7.05273"
       height="19.6843"
       filterUnits="userSpaceOnUse"
       color-interpolation-filters="sRGB">
      <feFlood
         flood-opacity="0"
         result="BackgroundImageFix"
         id="feFlood15" />
      <feColorMatrix
         in="SourceAlpha"
         type="matrix"
         values="0 0 0 0 0 0 0 0 0 0 0 0 0 0 0 0 0 0 127 0"
         result="hardAlpha"
         id="feColorMatrix15" />
      <feOffset
         dy="0.5"
         id="feOffset15" />
      <feGaussianBlur
         stdDeviation="0.5"
         id="feGaussianBlur15" />
      <feComposite
         in2="hardAlpha"
         operator="out"
         id="feComposite15" />
      <feColorMatrix
         type="matrix"
         values="0 0 0 0 0 0 0 0 0 0 0 0 0 0 0 0 0 0 0.12 0"
         id="feColorMatrix16" />
      <feBlend
         mode="normal"
         in2="BackgroundImageFix"
         result="effect1_dropShadow_3903_56743"
         id="feBlend16" />
      <feBlend
         mode="normal"
         in="SourceGraphic"
         in2="effect1_dropShadow_3903_56743"
         result="shape"
         id="feBlend17" />
    </filter>
    <filter
       id="filter2_d_3903_56743"
       x="31.0078"
       y="13.3926"
       width="7.05273"
       height="26"
       filterUnits="userSpaceOnUse"
       color-interpolation-filters="sRGB">
      <feFlood
         flood-opacity="0"
         result="BackgroundImageFix"
         id="feFlood17" />
      <feColorMatrix
         in="SourceAlpha"
         type="matrix"
         values="0 0 0 0 0 0 0 0 0 0 0 0 0 0 0 0 0 0 127 0"
         result="hardAlpha"
         id="feColorMatrix17" />
      <feOffset
         dy="0.5"
         id="feOffset17" />
      <feGaussianBlur
         stdDeviation="0.5"
         id="feGaussianBlur17" />
      <feComposite
         in2="hardAlpha"
         operator="out"
         id="feComposite17" />
      <feColorMatrix
         type="matrix"
         values="0 0 0 0 0 0 0 0 0 0 0 0 0 0 0 0 0 0 0.12 0"
         id="feColorMatrix18" />
      <feBlend
         mode="normal"
         in2="BackgroundImageFix"
         result="effect1_dropShadow_3903_56743"
         id="feBlend18" />
      <feBlend
         mode="normal"
         in="SourceGraphic"
         in2="effect1_dropShadow_3903_56743"
         result="shape"
         id="feBlend19" />
    </filter>
  </defs>
  <path
     d="m 199.09698,32.950546 -3.64855,-1.553714 3.27018,-8.713757 -9.92316,-4.225706 -3.27019,8.713757 -6.08866,-2.592815 17.6799,-19.8903357 -10.02077,-4.3247008 -25.09113,27.7881275 19.96248,8.500886 -2.61056,6.956152 9.92314,4.225705 2.61057,-6.956152 3.64857,1.553713 z"
     id="text2"
     style="font-weight:bold;font-size:35.2745px;font-family:'LEMON MILK';-inkscape-font-specification:'LEMON MILK Bold';letter-spacing:0.661397px;fill:#0066ff;stroke-width:0.249927;stroke:none"
     aria-label="4" />
  <path
     style="font-size:35.2745px;font-family:'DIN Alternate Black';-inkscape-font-specification:'DIN Alternate Black, ';letter-spacing:-3.0865px;fill:#333333;stroke-width:5.29013"
     d="M 56.501275,39.040172 H 32.199652 V 0.17016212 h 8.984846 V 30.535691 H 56.501275 Z M 79.546537,24.350614 q 0,4.345549 -0.650722,6.824912 -0.650707,2.452703 -2.352571,4.425531 -3.328638,3.759032 -8.884726,3.759032 -5.581118,0 -8.859696,-3.759032 -1.126233,-1.279674 -1.801984,-2.799283 -0.675737,-1.519608 -0.951038,-3.465775 -0.2753,-1.972827 -0.2753,-4.985385 0,-2.985899 0.2753,-4.932065 0.275301,-1.972826 0.951038,-3.465775 0.675751,-1.519611 1.801984,-2.852602 1.451578,-1.626248 3.628969,-2.692641 2.177375,-1.0663926 5.230727,-1.0663926 3.053337,0 5.230728,1.0663926 2.202405,1.039733 3.653998,2.692641 1.701864,1.972826 2.352571,4.452189 0.650722,2.479363 0.650722,6.798253 z m -8.409216,0 q 0,-2.559341 -0.25027,-3.945653 -0.225241,-1.41297 -0.976068,-2.159444 -0.750826,-0.826454 -2.252465,-0.826454 -1.476623,0 -2.252465,0.826454 -0.750827,0.799793 -1.001098,2.292744 -0.225255,1.466289 -0.225255,3.812353 0,2.346063 0.225255,3.812354 0.250271,1.43963 1.001098,2.292744 0.775842,0.826454 2.252465,0.826454 1.501639,0 2.252465,-0.799795 0.750827,-0.826454 0.976068,-2.186105 0.25027,-1.38631 0.25027,-3.945652 z M 103.76809,39.040172 H 95.5591 v -2.399384 q -1.22634,1.306332 -2.97826,2.026147 -1.75193,0.693154 -3.428759,0.693154 -3.804165,0 -6.206795,-2.506022 -1.601759,-1.706228 -2.177391,-3.705714 -0.575616,-2.026146 -0.575616,-4.692127 V 9.6610567 h 8.4092 V 27.256534 q 0,2.212764 1.076188,3.119199 1.101203,0.906433 2.302513,0.906433 1.20132,0 2.27749,-0.879774 1.1012,-0.906434 1.1012,-3.145858 V 9.6610567 h 8.40922 z M 129.16592,9.6610567 119.02983,39.040172 h -6.40702 L 102.46168,9.6610567 h 8.80965 l 4.58001,15.2494143 4.50495,-15.2494143 z m 21.49356,14.6895573 q 0,4.345549 -0.6507,6.824912 -0.65071,2.452703 -2.35259,4.425531 -3.32864,3.759032 -8.88472,3.759032 -5.58111,0 -8.8597,-3.759032 -1.12623,-1.279674 -1.80197,-2.799283 -0.67575,-1.519608 -0.95105,-3.465775 -0.2753,-1.972827 -0.2753,-4.985385 0,-2.985899 0.2753,-4.932065 0.2753,-1.972826 0.95105,-3.465775 0.67574,-1.519611 1.80197,-2.852602 1.45159,-1.626248 3.62897,-2.692641 2.17739,-1.0663926 5.23073,-1.0663926 3.05335,0 5.23072,1.0663926 2.20242,1.039733 3.654,2.692641 1.70188,1.972826 2.35259,4.452189 0.6507,2.479363 0.6507,6.798253 z m -8.4092,0 q 0,-2.559341 -0.25028,-3.945653 -0.22524,-1.41297 -0.97607,-2.159444 -0.75083,-0.826454 -2.25246,-0.826454 -1.47661,0 -2.25247,0.826454 -0.75083,0.799793 -1.0011,2.292744 -0.22524,1.466289 -0.22524,3.812353 0,2.346063 0.22524,3.812354 0.25027,1.43963 1.0011,2.292744 0.77586,0.826454 2.25247,0.826454 1.50163,0 2.25246,-0.799795 0.75083,-0.826454 0.97607,-2.186105 0.25028,-1.38631 0.25028,-3.945652 z m 30.4784,-12.290175 -6.35696,6.878233 q -0.70077,-0.746476 -1.35147,-1.119713 -0.65073,-0.399896 -1.67684,-0.399896 -1.17629,0 -2.27749,0.933093 -1.10121,0.906433 -1.10121,3.119197 V 39.040172 H 151.5555 V 9.6610567 h 8.20897 v 2.3993823 q 1.05118,-1.119712 2.75302,-1.919506 1.7269,-0.7997946 3.75412,-0.7997946 2.05224,0 3.55388,0.6131764 1.50166,0.6131752 2.90319,2.1061242 z"
     id="text1"
     aria-label="Louvor" />
</svg>
